<svg xmlns="http://www.w3.org/2000/svg" viewBox="0 0 121.63 121.22"><defs><style>.cls-1{fill:#fff}</style></defs><title>Facebook</title><path id="_Compound_Path_" data-name="&lt;Compound Path&gt;" class="cls-1" d="M67.93 121.22v-43.7-1.62h18.32c.73 0 1.1-.2 1.09-1 0-.33.08-.65.1-1q.36-7.36.71-14.72v-2.95H69.09c-.56 0-1.21.17-1.2-.8 0-4.65-.05-9.32.14-14 .16-3.91 2.28-6.08 6.14-6.75a19.82 19.82 0 0 1 3.17-.27q5-.05 10 0c.82 0 1.15-.2 1.15-1.1q-.06-8 0-15.95c0-.85-.31-1-1.08-1.06-3.11-.14-6.21-.42-9.32-.52a49.79 49.79 0 0 0-11.61.54c-7.24 1.46-12.86 5.18-16.28 11.84A28.29 28.29 0 0 0 47.25 41c-.06 4.73 0 9.46 0 14.19 0 .85-.24 1.14-1.11 1.13H34.48c-1.07 0-1.35.34-1.35 1.38v16.72c0 1.52 0 1.52 1.57 1.52h12.5V120.15a60.84 60.84 0 1 1 20.72 1.12z"/></svg>