<svg xmlns="http://www.w3.org/2000/svg" viewBox="0 0 124.83 124.83"><defs><style>.cls-1{fill:#f0f0f0}</style></defs><title>Twitter</title><path id="_Path_" data-name="&lt;Path&gt;" class="cls-1" d="M62.41 0A62.42 62.42 0 0 0 9.65 95.76l.59.12a30.07 30.07 0 0 0 25.09-6.67c.69-.58 1.34-1.2 2-1.8.1-.09.18-.19.33-.35-.57 0-1.06-.06-1.54-.11A8.61 8.61 0 0 1 31 85a3.79 3.79 0 0 1-.42-5.5 8.69 8.69 0 0 1 2.64-2.15.78.78 0 0 0 .32-.29h-.36a21.46 21.46 0 0 1-5.63-.8 12 12 0 0 1-7.19-5.35c-.57-.93-.52-1.16.33-1.84a10.39 10.39 0 0 1 4.93-2c.54-.09 1.09-.15 1.64-.23v-.09l-.49-.18a22.73 22.73 0 0 1-6.46-3 13 13 0 0 1-5.43-7.75c-.11-.43-.05-.6.39-.7 1.14-.26 2.29-.51 3.45-.69.88-.14 1.77-.18 2.77-.27-.19-.15-.3-.25-.42-.33a25.7 25.7 0 0 1-4.29-3.31 14.75 14.75 0 0 1-4.47-7.64c-.14-.68-.22-1.36-.33-2a.83.83 0 0 1 0-.11c0-.85.27-1.07 1.06-.75 6.75 2.69 13.57 5.21 20.12 8.39a72.55 72.55 0 0 1 13.26 7.79c1.36 1.07 2.62 2.28 3.92 3.42l.43.4.36-1.08a80.43 80.43 0 0 1 5.24-12.47 49.35 49.35 0 0 1 9.94-13.07 22.45 22.45 0 0 1 1.88-1.49c.12-.09.33-.06.5-.09a1.34 1.34 0 0 1 0 .48c-.21.58-.45 1.15-.68 1.72l-.17.41.08.06c.14-.1.29-.19.43-.3A16.8 16.8 0 0 1 74.23 31a6.53 6.53 0 0 1 1.39-.24c.51 0 .73.32.41.72a16.78 16.78 0 0 1-1.63 1.69 10.24 10.24 0 0 1-1.1.78.52.52 0 0 0-.22.28l.33-.09a25.32 25.32 0 0 1 5.13-1.32 16.68 16.68 0 0 1 2.13 0 1.1 1.1 0 0 1 .38.1c.52.21.68.6.31 1a6.35 6.35 0 0 1-1.29 1.15 15.81 15.81 0 0 1-4.14 1.86c-1.18.37-2.38.66-3.57 1L72 38v.09a2 2 0 0 0 .28 0A24.71 24.71 0 0 1 85 42.11a24.36 24.36 0 0 1 8.25 8.82 28.49 28.49 0 0 1 3.19 9 .78.78 0 0 0 .69.72c1.41.2 2.82.43 4.24.58.94.1 1.89.08 2.83.08a20.64 20.64 0 0 0 5.55-.82l.49-.13c-.06.24-.09.41-.15.58a5.22 5.22 0 0 1-2.28 2.56 19.31 19.31 0 0 1-5.84 2.27c-1.09.27-2.2.49-3.3.73a.68.68 0 0 0-.35.19A36.76 36.76 0 0 0 110.66 68c-.14.17-.21.27-.3.36a14.72 14.72 0 0 1-6.55 3.84 21.44 21.44 0 0 1-5.25.88c-.35 0-.7.06-1.05.06a.39.39 0 0 0-.46.34 50.22 50.22 0 0 1-2.36 6.61A46.23 46.23 0 0 1 84.31 95a53 53 0 0 1-15.08 10 67 67 0 0 1-15 4.8c-1.91.37-3.84.63-5.77.88a56 56 0 0 1-9.11.42c-2-.07-4-.23-6-.42a54.36 54.36 0 0 1-8.97-1.68q-2.75-.74-5.38-1.72A62.41 62.41 0 1 0 62.41 0z"/></svg>