<svg xmlns="http://www.w3.org/2000/svg" viewBox="0 0 120.82 120.82"><defs><style>.cls-1{fill:#fff}</style></defs><title>youtube</title><path id="_Compound_Path_" data-name="&lt;Compound Path&gt;" class="cls-1" d="M51.5 48.09l23.16 12.32L51.5 72.73zm69.32 12.32A60.41 60.41 0 1 1 60.41 0a60.41 60.41 0 0 1 60.41 60.41zm-16.36 0v-.09c0-18.08-1.21-23.05-5.31-27.16C96 30 89.29 29.49 60.4 29.49S24.79 30 21.64 33.2c-4.34 4.34-5.28 9.17-5.28 27.17v.09c0 18 .94 22.83 5.28 27.17 3.15 3.15 9.94 3.71 38.76 3.71s35.56-.52 38.77-3.72c4.08-4.11 5.29-9.09 5.29-27.17z"/></svg>